<?xml version="1.0" ?><!DOCTYPE svg  PUBLIC '-//W3C//DTD SVG 1.1//EN'  'http://www.w3.org/Graphics/SVG/1.1/DTD/svg11.dtd'><svg enable-background="new 0 0 512 512" height="512px" id="Layer_1" version="1.1" viewBox="0 0 512 512" width="512px" x="0px" xml:space="preserve" xmlns="http://www.w3.org/2000/svg" xmlns:xlink="http://www.w3.org/1999/xlink" y="0px"><g><path d="M127.75,360h199.5c4.397,0,10.145-1.928,12.455-5.83c1.266-2.123,1.899-4.562,1.899-6.982c0-2.032-0.452-4.072-1.343-5.931   l-50.668-105.866c-1.823-3.8-5.274-6.469-9.289-7.157c-0.689-0.111-1.357-0.169-2.032-0.169c-3.34-0.014-6.575,1.37-8.962,3.882   l-14.633,14.604l-34.303-57.676c-4.905-9.254-7.125-14.25-17.966-14.403c-10.534-0.139-13.262,5.302-17.659,14.695l-69.816,152.074   c-0.891,1.858-1.329,3.883-1.329,5.915c0,2.421,0.633,4.891,1.886,7.014C117.8,358.072,123.353,360,127.75,360z"/><path d="M455.5,61h-399C42.25,61,28,74.875,28,89.125v327.75C28,431.125,48.512,445,56.5,445h399.383   C469.75,445,484,431.125,484,416.875V89.125C484,74.875,469.75,61,455.5,61z M441,403H71V103h370V403z"/><path d="M355.75,231.625c23.608,0,42.75-19.135,42.75-42.75s-19.142-42.75-42.75-42.75S313,165.26,313,188.875   S332.142,231.625,355.75,231.625z"/></g></svg>