<?xml version="1.0" encoding="utf-8"?>
<!-- Generator: Adobe Illustrator 16.0.3, SVG Export Plug-In . SVG Version: 6.00 Build 0)  -->
<!DOCTYPE svg PUBLIC "-//W3C//DTD SVG 1.1//EN" "http://www.w3.org/Graphics/SVG/1.1/DTD/svg11.dtd">
<svg version="1.1" id="Layer_1" xmlns="http://www.w3.org/2000/svg" xmlns:xlink="http://www.w3.org/1999/xlink" x="0px" y="0px"
	 width="960px" height="560px" viewBox="0 0 960 560" enable-background="new 0 0 960 560" xml:space="preserve">
<rect x="232.77" y="176.23" fill="none" width="516.923" height="148.462"/>
<text transform="matrix(1 0 0 1 232.7695 319.2295)" font-family="'AGaramondPro-Regular'" font-size="200">sp  kes</text>
<path stroke="#000000" stroke-miterlimit="10" d="M504.538,271.385c0,29.313-23.763,53.076-53.077,53.076
	c-29.313,0-53.076-23.763-53.076-53.076c0-29.314,23.763-53.077,53.076-53.077C480.775,218.308,504.538,242.07,504.538,271.385z
	 M451.324,240.908c-16.831,0-30.477,13.645-30.477,30.477c0,16.831,13.646,30.477,30.477,30.477
	c16.832,0,30.477-13.646,30.477-30.477C481.801,254.553,468.156,240.908,451.324,240.908z"/>
<path fill="none" stroke="#000000" stroke-width="10" stroke-miterlimit="10" d="M475.361,362.987"/>
<path fill="none" stroke="#000000" stroke-width="10" stroke-miterlimit="10" d="M461.952,371.928"/>
<path stroke="#000000" stroke-miterlimit="10" d="M405.231,354.538c0,9.347-7.577,16.923-16.923,16.923
	c-9.346,0-16.923-7.576-16.923-16.923s7.577-16.923,16.923-16.923C397.654,337.615,405.231,345.191,405.231,354.538z
	 M388.264,344.82c-5.367,0-9.717,4.351-9.717,9.718c0,5.366,4.351,9.717,9.717,9.717s9.717-4.351,9.717-9.717
	C397.981,349.171,393.631,344.82,388.264,344.82z"/>
<path stroke="#000000" stroke-miterlimit="10" d="M432.231,149.538c0,9.347-7.577,16.923-16.923,16.923
	c-9.346,0-16.923-7.576-16.923-16.923s7.577-16.923,16.923-16.923C424.654,132.615,432.231,140.191,432.231,149.538z
	 M415.264,139.82c-5.367,0-9.717,4.351-9.717,9.718c0,5.366,4.351,9.717,9.717,9.717s9.717-4.351,9.717-9.717
	C424.981,144.171,420.631,139.82,415.264,139.82z"/>
<path stroke="#000000" stroke-miterlimit="10" d="M492.23,371.538c0,9.347-7.576,16.923-16.923,16.923s-16.923-7.576-16.923-16.923
	s7.576-16.923,16.923-16.923S492.23,362.191,492.23,371.538z M475.264,361.82c-5.366,0-9.717,4.351-9.717,9.718
	c0,5.366,4.351,9.717,9.717,9.717c5.367,0,9.718-4.351,9.718-9.717C484.981,366.171,480.631,361.82,475.264,361.82z"/>
<path stroke="#000000" stroke-miterlimit="10" d="M485.23,183.538c0,9.347-7.576,16.923-16.923,16.923s-16.923-7.576-16.923-16.923
	s7.576-16.923,16.923-16.923S485.23,174.191,485.23,183.538z M468.264,173.82c-5.366,0-9.717,4.351-9.717,9.718
	c0,5.366,4.351,9.717,9.717,9.717c5.367,0,9.718-4.351,9.718-9.717C477.981,178.171,473.631,173.82,468.264,173.82z"/>
<path stroke="#000000" stroke-miterlimit="10" d="M371.231,193.538c0,9.347-7.577,16.923-16.923,16.923
	c-9.346,0-16.923-7.576-16.923-16.923s7.577-16.923,16.923-16.923C363.654,176.615,371.231,184.191,371.231,193.538z
	 M354.264,183.82c-5.367,0-9.717,4.351-9.717,9.718c0,5.366,4.351,9.717,9.717,9.717s9.717-4.351,9.717-9.717
	C363.981,188.171,359.631,183.82,354.264,183.82z"/>
<line fill="none" stroke="#000000" stroke-width="10" stroke-miterlimit="10" x1="361.078" y1="200.461" x2="425.846" y2="250.461"/>
<line fill="none" stroke="#000000" stroke-width="10" stroke-miterlimit="10" x1="418.888" y1="166.078" x2="440.5" y2="242.894"/>
<line fill="none" stroke="#000000" stroke-width="10" stroke-miterlimit="10" x1="468.264" y1="193.255" x2="468.264" y2="193.255"/>
<line fill="none" stroke="#000000" stroke-width="10" stroke-miterlimit="10" x1="464.724" y1="192.58" x2="458.385" y2="241.739"/>
<line fill="none" stroke="#000000" stroke-width="10" stroke-miterlimit="10" x1="470.645" y1="362.987" x2="454.886" y2="301.647"/>
<line fill="none" stroke="#000000" stroke-width="10" stroke-miterlimit="10" x1="393.462" y1="346.337" x2="432.231" y2="295.131"/>
</svg>
